<svg width="548" height="514" viewBox="0 0 548 514" fill="none" xmlns="http://www.w3.org/2000/svg">
<path fill-rule="evenodd" clip-rule="evenodd" d="M401.599 176.093L348.76 146.024L275.553 188.586L275.61 104.377L222.771 74.3079L169.922 105.034L169.866 189.243L169.846 228.584L169.98 265.487L170.185 285.113L169.846 333.203L169.835 371.63L169.84 415.896L222.646 445.908L275.495 415.181L275.489 370.915L348.698 412.528L349.223 412.222L401.547 381.801L401.591 321.063L328.382 279.451L401.589 236.888L401.599 176.093ZM262.252 112.143L262.195 196.352L229.413 215.412L229.507 93.5458L262.252 112.143ZM183.268 112.685L216.051 93.6254L215.992 291.671L183.21 310.731L183.268 112.685ZM169.835 371.63L169.852 318.497L169.847 356.212L169.835 371.63ZM183.21 310.731L215.992 291.671L215.999 381.315L183.217 400.375L183.21 310.731ZM262.182 407.588L222.691 430.548L189.913 411.892L229.404 388.932L229.404 283.495L262.169 300.495L262.182 407.588ZM348.686 397.202L275.477 355.589L275.481 317.874L381.468 378.142L348.686 397.202ZM388.233 328.83L388.195 366.487L282.208 306.219L314.99 287.159L388.233 328.83ZM262.169 300.495L229.404 283.495L348.757 214.482L381.535 233.137L262.169 300.495ZM348.802 199.122L348.277 199.428L215.997 275.495L216.009 236.495L348.865 161.373L388.3 183.825L388.237 221.575L348.802 199.122Z" fill="#FFF85B"/>
</svg>
